<svg xmlns="http://www.w3.org/2000/svg" xmlns:xlink="http://www.w3.org/1999/xlink" xml:space="preserve" version="1.1" style="shape-rendering:geometricPrecision;text-rendering:geometricPrecision;image-rendering:optimizeQuality;" viewBox="0 0 100 125" x="0px" y="0px" fill-rule="evenodd" clip-rule="evenodd"><defs><style type="text/css">
   
    .fil0 {fill:black;fill-rule:nonzero}
   
  </style></defs><g><path class="fil0" d="M70.68 55.46c-1.45,-1.45 -3.84,-1.45 -5.29,0 -1.41,1.41 -1.46,3.75 -0.08,5.21 1.56,1.45 3.8,1.64 5.37,0.07 1.47,-1.44 1.45,-3.83 0,-5.28zm-34.79 0c-1.45,-1.45 -3.83,-1.45 -5.29,0 -1.42,1.42 -1.46,3.74 -0.08,5.21 1.55,1.46 3.81,1.63 5.37,0.07 1.47,-1.44 1.45,-3.83 0,-5.28zm4.23 0.98l16.98 0c0.92,0 1.67,0.74 1.67,1.66 0,0.92 -0.75,1.67 -1.67,1.67l-16.98 0c-0.77,3.16 -3.61,5.4 -6.87,5.4 -3.28,0 -6.11,-2.25 -6.87,-5.4l-1.95 0 -0.73 -0.05c-2.83,-0.33 -5.38,-2.66 -5.38,-5.63l0.04 -0.59c0.15,-0.74 0.39,-1.47 0.55,-2.21 0.66,-2.58 1.57,-4.19 3.04,-5.31 1.41,-1.07 3.17,-1.54 5.63,-1.92l9.06 -1.42 4.37 -4.28c1.73,-1.71 3.58,-3.53 6.36,-3.53l15.77 0c4.69,0 6.65,0.33 9.56,4.1l3.91 5.05 3.71 0.98c0.77,0.15 1.36,0.83 1.36,1.64l0 11.5c0,0.92 -0.75,1.67 -1.67,1.67l-5.1 0c-0.77,3.16 -3.61,5.4 -6.87,5.4 -3.91,0 -7.08,-3.17 -7.08,-7.07 0,-3.9 3.17,-7.07 7.08,-7.07 3.26,0 6.1,2.24 6.87,5.41l3.44 0 0 -8.56 -3.14 -0.83c-0.39,-0.1 -0.71,-0.34 -0.93,-0.64l-4.21 -5.45c-2.22,-2.88 -3.28,-2.8 -6.93,-2.8l-15.77 0c-1.43,0 -2.77,1.33 -4.02,2.57l-4.77 4.66c-0.28,0.27 -0.63,0.43 -0.99,0.46l-9.5 1.49c-1.94,0.3 -3.27,0.63 -4.14,1.29 -0.8,0.61 -1.35,1.66 -1.81,3.48 -0.13,0.53 -0.54,1.82 -0.46,2.28 0.19,1.1 1.37,1.91 2.42,2.03l2.27 0.01c0.77,-3.16 3.61,-5.4 6.88,-5.4 3.27,0 6.11,2.24 6.87,5.41zm-15.01 -43.91c-1.81,1.22 -3.66,-1.54 -1.85,-2.76 8,-5.36 17.11,-8.1 26.74,-8.1 26.69,0 48.33,21.64 48.33,48.33 0,26.69 -21.64,48.33 -48.33,48.33 -26.7,0 -48.33,-21.64 -48.33,-48.33 0,-9.62 2.87,-19.04 8.25,-27.02 1.23,-1.81 3.99,0.05 2.76,1.86 -5.04,7.47 -7.68,16.15 -7.68,25.16 0,24.85 20.15,45 45,45 24.85,0 45,-20.15 45,-45 0,-24.85 -20.15,-45 -45,-45 -8.95,0 -17.45,2.55 -24.89,7.53z"/></g><text x="0" y="115" fill="#000000" font-size="5px" font-weight="bold" font-family="'Helvetica Neue', Helvetica, Arial-Unicode, Arial, Sans-serif">Created by Hadi</text><text x="0" y="120" fill="#000000" font-size="5px" font-weight="bold" font-family="'Helvetica Neue', Helvetica, Arial-Unicode, Arial, Sans-serif">from the Noun Project</text></svg>